<svg width="81" height="22" viewBox="0 0 81 22" fill="none" xmlns="http://www.w3.org/2000/svg">
<path d="M16.1986 20.84C15.708 20.84 15.0786 20.808 14.3106 20.744C13.564 20.6587 12.668 20.552 11.6226 20.424C11.4733 20.4027 11.324 20.392 11.1746 20.392C11.0253 20.392 10.8653 20.392 10.6946 20.392C10.0333 20.392 9.29729 20.424 8.48663 20.488C7.69729 20.552 6.89729 20.584 6.08663 20.584H0.934625C0.785292 20.584 0.710625 20.488 0.710625 20.296C0.710625 20.2107 0.731958 20.136 0.774625 20.072C0.838625 20.008 0.913292 19.9973 0.998625 20.04C1.46796 20.0613 1.86263 20.072 2.18263 20.072C2.50263 20.072 2.80129 20.072 3.07863 20.072C3.59063 20.072 4.05996 19.9973 4.48663 19.848C4.91329 19.6987 5.29729 19.4 5.63863 18.952C5.97996 18.504 6.27863 17.832 6.53463 16.936C6.66263 16.5093 6.82263 15.88 7.01463 15.048C7.22796 14.216 7.45196 13.2667 7.68663 12.2C7.92129 11.1333 8.14529 10.024 8.35863 8.872C8.59329 7.69867 8.78529 6.568 8.93463 5.48C9.10529 4.37067 9.22263 3.37867 9.28663 2.504C9.32929 2.09867 9.23329 1.8 8.99863 1.608C8.76396 1.416 8.55063 1.29867 8.35863 1.256C8.14529 1.192 7.80396 1.14933 7.33463 1.128C6.86529 1.10667 6.41729 1.096 5.99063 1.096C5.73463 1.096 5.49996 1.10667 5.28663 1.128C5.09463 1.128 4.94529 1.128 4.83863 1.128C4.73196 1.128 4.67863 1.08533 4.67863 1C4.67863 0.914666 4.72129 0.829333 4.80663 0.743999C4.91329 0.637333 5.01996 0.584 5.12663 0.584C5.83063 0.626666 6.59863 0.658665 7.43063 0.679998C8.28396 0.701333 9.13729 0.722666 9.99063 0.743999C10.844 0.743999 11.612 0.743999 12.2946 0.743999C12.636 0.743999 13.1586 0.722666 13.8626 0.679998C14.5666 0.637332 15.3453 0.605333 16.1986 0.584C17.052 0.541332 17.8413 0.519999 18.5666 0.519999H18.5986C18.7266 0.519999 18.7906 0.615999 18.7906 0.807999C18.7906 0.893332 18.7693 0.967999 18.7266 1.032C18.684 1.07467 18.6093 1.08533 18.5026 1.064C18.0333 1.04267 17.596 1.032 17.1906 1.032C16.7853 1.01067 16.412 1 16.0706 1C15.2173 1 14.5453 1.08533 14.0546 1.256C13.5853 1.42667 13.212 1.77867 12.9346 2.312C12.6573 2.84533 12.38 3.656 12.1026 4.744C11.804 5.93867 11.548 7.03733 11.3346 8.04C11.1213 9.02133 10.9293 9.97067 10.7586 10.888C10.6093 11.8053 10.4493 12.7653 10.2786 13.768C10.1293 14.7493 9.96929 15.848 9.79862 17.064C9.77729 17.1707 9.75596 17.288 9.73463 17.416C9.73463 17.5227 9.73463 17.6293 9.73463 17.736C9.73463 18.2907 9.95863 18.7387 10.4066 19.08C10.876 19.4213 11.7933 19.592 13.1586 19.592C14.7586 19.592 16.1666 19.1547 17.3826 18.28C18.5986 17.384 19.5586 16.2427 20.2626 14.856C20.3053 14.792 20.348 14.76 20.3906 14.76C20.4333 14.76 20.476 14.8027 20.5186 14.888C20.5613 14.952 20.5613 15.0267 20.5186 15.112C20.412 15.3467 20.2733 15.72 20.1026 16.232C19.932 16.7227 19.7293 17.2667 19.4946 17.864C19.26 18.44 18.9826 18.984 18.6626 19.496C18.364 19.9867 18.0226 20.3493 17.6386 20.584C17.3613 20.7547 16.8813 20.84 16.1986 20.84ZM31.1941 7.496C30.5115 7.56 29.9461 7.496 29.4981 7.304C29.0501 7.112 28.5488 7.016 27.9941 7.016C27.6741 7.016 27.3221 7.08 26.9381 7.208L26.8421 6.856C27.3541 6.6 27.8981 6.36533 28.4741 6.152C29.0715 5.93867 29.6368 5.832 30.1701 5.832C30.5115 5.832 30.8421 5.864 31.1621 5.928C31.4821 5.992 31.8128 6.056 32.1541 6.12C32.3888 6.14133 32.6235 6.17333 32.8581 6.216C33.0928 6.23733 33.3381 6.248 33.5941 6.248C33.7861 6.248 33.9888 6.23733 34.2021 6.216C34.4368 6.19467 34.6715 6.16267 34.9061 6.12L35.0341 6.344C35.0341 6.344 34.8635 6.39733 34.5221 6.504C34.2021 6.61067 33.8075 6.73867 33.3381 6.888C32.8688 7.03733 32.4315 7.176 32.0261 7.304C31.6208 7.41067 31.3435 7.47467 31.1941 7.496ZM27.2261 21.32C27.2048 21.2133 27.1941 21.0853 27.1941 20.936C27.1941 20.7867 27.1941 20.6267 27.1941 20.456C27.1941 19.816 27.2368 19.0373 27.3221 18.12C27.4288 17.2027 27.5675 16.264 27.7381 15.304C27.9088 14.3227 28.1008 13.4267 28.3141 12.616C28.7408 11.1653 29.1888 10.056 29.6581 9.288C30.1488 8.52 30.8741 7.96533 31.8341 7.624C31.9408 7.58133 32.1328 7.51733 32.4101 7.432C32.7088 7.32533 33.0181 7.208 33.3381 7.08C33.6581 6.952 33.9355 6.84533 34.1701 6.76C34.4048 6.67467 34.5221 6.632 34.5221 6.632L34.6501 6.92L33.7861 7.304C33.4021 7.47467 33.0075 7.82667 32.6021 8.36C32.1968 8.872 31.8235 9.48 31.4821 10.184C31.1408 10.8667 30.8741 11.56 30.6821 12.264C30.4688 13.1173 30.2875 14.0133 30.1381 14.952C29.9888 15.8693 29.8715 16.7333 29.7861 17.544C30.2555 16.8827 30.7675 16.2107 31.3221 15.528C31.8768 14.824 32.4528 14.1733 33.0501 13.576C33.6688 12.9573 34.2661 12.456 34.8421 12.072L35.0981 12.392C34.5648 12.712 34.0101 13.224 33.4341 13.928C32.8581 14.632 32.3035 15.3893 31.7701 16.2C31.2581 17.0107 30.8208 17.768 30.4581 18.472C30.0955 19.176 29.8608 19.7093 29.7541 20.072L27.2261 21.32ZM19.7701 21.32C19.7488 21.2133 19.7381 21.0853 19.7381 20.936C19.7381 20.7867 19.7381 20.6267 19.7381 20.456C19.7381 19.816 19.7808 19.0373 19.8661 18.12C19.9728 17.2027 20.1115 16.264 20.2821 15.304C20.4528 14.3227 20.6448 13.4267 20.8581 12.616C21.2848 11.144 21.7755 10.0347 22.3301 9.288C22.9061 8.52 23.6741 7.96533 24.6341 7.624C24.8475 7.56 25.1355 7.464 25.4981 7.336C25.8608 7.18667 26.2128 7.05867 26.5541 6.952L26.6821 7.304L25.7541 7.784C25.3701 7.99733 24.9541 8.53067 24.5061 9.384C24.0581 10.2373 23.6848 11.1973 23.3861 12.264C23.2155 12.9467 23.0448 13.6613 22.8741 14.408C22.7248 15.1547 22.5968 15.88 22.4901 16.584C22.4901 16.6267 22.5221 16.648 22.5861 16.648C22.6928 16.648 22.8421 16.6053 23.0341 16.52C23.2261 16.4347 23.3328 16.3813 23.3541 16.36C23.5888 16.2107 23.8661 16.0187 24.1861 15.784C24.5275 15.528 24.8688 15.24 25.2101 14.92C25.9141 14.28 26.5648 13.5653 27.1621 12.776C27.7808 11.9653 28.1648 11.1973 28.3141 10.472C28.3141 10.4293 28.3781 10.4187 28.5061 10.44C28.6555 10.44 28.7301 10.44 28.7301 10.44C28.5808 11.3787 28.1648 12.2853 27.4821 13.16C26.7995 14.0347 26.0848 14.8773 25.3381 15.688C24.9968 16.0507 24.6448 16.424 24.2821 16.808C23.9408 17.1707 23.6208 17.5653 23.3221 17.992C23.0448 18.3547 22.8208 18.7067 22.6501 19.048C22.5008 19.3893 22.4261 19.72 22.4261 20.04L19.7701 21.32ZM34.9176 21.448C35.1096 20.2533 35.355 18.984 35.6536 17.64C35.9736 16.2747 36.2403 14.984 36.4536 13.768C36.6243 12.8933 36.7523 12.072 36.8376 11.304C36.9443 10.536 36.9976 9.88533 36.9976 9.352C36.9976 8.98933 36.9656 8.68 36.9016 8.424C36.9016 8.424 36.763 8.47733 36.4856 8.584C36.2296 8.66933 35.931 8.776 35.5896 8.904C35.2696 9.032 34.9923 9.16 34.7576 9.288L34.9496 8.648C35.6323 8.30667 36.379 7.89067 37.1896 7.4C38.0216 6.888 38.7043 6.44 39.2376 6.056C39.4083 6.33333 39.4936 6.89867 39.4936 7.752C39.4936 8.73333 39.387 9.93867 39.1736 11.368C38.9816 12.776 38.7576 14.152 38.5016 15.496C38.6723 15.1547 38.8536 14.824 39.0456 14.504C39.259 14.1627 39.4616 13.8213 39.6536 13.48C39.8243 13.2027 40.1016 12.776 40.4856 12.2C40.891 11.624 41.3603 10.9947 41.8936 10.312C42.427 9.608 42.971 8.936 43.5256 8.296C44.1016 7.656 44.6456 7.13333 45.1576 6.728C45.691 6.30133 46.139 6.07733 46.5016 6.056C46.651 6.33333 46.7256 6.77067 46.7256 7.368C46.7256 7.70933 46.7043 8.11467 46.6616 8.584C46.619 9.032 46.555 9.50133 46.4696 9.992C46.3416 10.824 46.1496 11.72 45.8936 12.68C45.6376 13.6187 45.4136 14.5467 45.2216 15.464C45.6056 14.76 46.0963 14.0133 46.6936 13.224C47.291 12.4347 47.9416 11.6667 48.6456 10.92C49.371 10.1733 50.0963 9.49067 50.8216 8.872C51.5683 8.25333 52.2723 7.76267 52.9336 7.4C53.4456 7.10133 54.0323 6.824 54.6936 6.568C55.3763 6.312 55.995 6.07733 56.5496 5.864L56.6776 6.152L56.1976 6.344C55.707 6.55733 55.2483 6.984 54.8216 7.624C54.395 8.264 54.0003 9.02133 53.6376 9.896C53.2963 10.7707 52.987 11.688 52.7096 12.648C52.4536 13.5867 52.2403 14.4933 52.0696 15.368C51.899 16.2213 51.771 16.936 51.6856 17.512C52.3683 16.5093 53.1683 15.496 54.0856 14.472C55.003 13.4267 55.899 12.6053 56.7736 12.008L56.9976 12.36C56.635 12.5947 56.1656 13.0213 55.5896 13.64C55.035 14.2587 54.4696 14.9627 53.8936 15.752C53.3176 16.5413 52.8163 17.32 52.3896 18.088C51.963 18.8347 51.7176 19.4747 51.6536 20.008L49.1256 21.288C49.1043 21.16 49.083 21.0213 49.0616 20.872C49.0616 20.7013 49.0616 20.5413 49.0616 20.392C49.0616 19.624 49.1363 18.728 49.2856 17.704C49.4563 16.68 49.6696 15.624 49.9256 14.536C50.1816 13.448 50.459 12.424 50.7576 11.464C51.0563 10.4827 51.3443 9.66133 51.6216 9C51.195 9.34133 50.683 9.832 50.0856 10.472C49.5096 11.0907 48.9123 11.816 48.2936 12.648C47.675 13.4587 47.0776 14.312 46.5016 15.208C45.947 16.0827 45.4776 16.9573 45.0936 17.832C44.7096 18.6853 44.4643 19.464 44.3576 20.168L41.7976 21.352C41.9896 20.2 42.2243 18.9947 42.5016 17.736C42.8003 16.4773 43.067 15.2613 43.3016 14.088C43.4936 13.1493 43.6536 12.2427 43.7816 11.368C43.931 10.4933 44.0056 9.85333 44.0056 9.448C44.0056 9.23467 43.995 9.10667 43.9736 9.064C43.1843 9.704 42.427 10.536 41.7016 11.56C40.9763 12.584 40.315 13.672 39.7176 14.824C39.1416 15.9547 38.651 17.0107 38.2456 17.992C37.8403 18.952 37.5736 19.7093 37.4456 20.264L34.9176 21.448ZM61.3299 6.024C61.0739 6.024 60.8179 5.992 60.5619 5.928C60.3272 5.84267 60.0605 5.72533 59.7619 5.576L61.1059 3.784C61.2765 3.86933 61.5112 3.912 61.8099 3.912C62.2792 3.912 62.8125 3.816 63.4099 3.624C64.0072 3.41067 64.5512 3.13333 65.0419 2.792C65.2125 2.51467 65.4045 2.376 65.6179 2.376C65.7459 2.376 65.8099 2.44 65.8099 2.568C65.8099 2.65333 65.7459 2.792 65.6179 2.984C65.4899 3.176 65.2445 3.432 64.8819 3.752C64.5405 4.05067 64.1672 4.37067 63.7619 4.712C63.3779 5.032 63.0472 5.30933 62.7699 5.544C62.4925 5.75733 62.3539 5.864 62.3539 5.864C62.1619 5.90667 61.9805 5.94933 61.8099 5.992C61.6605 6.01333 61.5005 6.024 61.3299 6.024ZM56.3059 21.32C56.2845 21.2133 56.2739 21.096 56.2739 20.968C56.2739 20.8187 56.2739 20.6693 56.2739 20.52C56.2739 19.8587 56.3165 19.0693 56.4019 18.152C56.5085 17.2347 56.6472 16.2853 56.8179 15.304C57.0099 14.3227 57.2125 13.4267 57.4259 12.616C57.8525 11.1653 58.3219 10.056 58.8339 9.288C59.3459 8.52 60.0819 7.96533 61.0419 7.624C61.1485 7.58133 61.3405 7.51733 61.6179 7.432C61.9165 7.32533 62.2259 7.208 62.5459 7.08C62.8659 6.952 63.1432 6.84533 63.3779 6.76C63.6125 6.67467 63.7299 6.632 63.7299 6.632L63.8579 6.92L62.9939 7.304C62.6099 7.47467 62.2152 7.82667 61.8099 8.36C61.4045 8.872 61.0312 9.48 60.6899 10.184C60.3485 10.8667 60.0819 11.56 59.8899 12.264C59.6765 13.1173 59.4739 14.0133 59.2819 14.952C59.0899 15.8693 58.9512 16.7333 58.8659 17.544C59.5485 16.5413 60.3379 15.528 61.2339 14.504C62.1512 13.4587 63.0472 12.648 63.9219 12.072L64.1459 12.392C63.6125 12.712 63.0579 13.224 62.4819 13.928C61.9272 14.632 61.3832 15.3893 60.8499 16.2C60.3379 17.0107 59.9005 17.768 59.5379 18.472C59.1752 19.176 58.9405 19.7093 58.8339 20.072L56.3059 21.32ZM65.2301 21.32C65.4221 20.104 65.6568 18.8347 65.9341 17.512C66.2328 16.168 66.4888 14.888 66.7021 13.672C66.8728 12.7547 67.0115 11.9013 67.1181 11.112C67.2461 10.3227 67.3101 9.66133 67.3101 9.128C67.3101 8.95733 67.3101 8.79733 67.3101 8.648C67.3101 8.49867 67.2888 8.37067 67.2461 8.264C67.2461 8.264 67.0328 8.328 66.6061 8.456C66.2008 8.584 65.6781 8.84 65.0381 9.224L65.2301 8.584C65.6355 8.34933 66.1048 8.072 66.6381 7.752C67.1928 7.432 67.7368 7.112 68.2701 6.792C68.8035 6.45067 69.2408 6.152 69.5821 5.896C69.6888 6.04533 69.7528 6.248 69.7741 6.504C69.8168 6.76 69.8381 7.05867 69.8381 7.4C69.8381 7.976 69.7848 8.648 69.6781 9.416C69.5928 10.1627 69.4755 10.9733 69.3261 11.848C69.2408 12.4453 69.1341 13.0427 69.0061 13.64C68.8781 14.2373 68.7608 14.8453 68.6541 15.464C69.0381 14.76 69.5288 14.024 70.1261 13.256C70.7235 12.4667 71.3741 11.6987 72.0781 10.952C72.7821 10.2053 73.4968 9.52267 74.2221 8.904C74.9688 8.28533 75.6728 7.784 76.3341 7.4C76.8461 7.12267 77.4435 6.856 78.1261 6.6C78.8088 6.344 79.4168 6.10933 79.9501 5.896L80.1101 6.184L79.6301 6.376C79.1181 6.58933 78.6488 7.016 78.2221 7.656C77.7955 8.27467 77.4008 9.02133 77.0381 9.896C76.6968 10.7707 76.3875 11.688 76.1101 12.648C75.8541 13.608 75.6408 14.5253 75.4701 15.4C75.2995 16.2533 75.1715 16.968 75.0861 17.544C75.7688 16.5413 76.5688 15.5173 77.4861 14.472C78.4035 13.4267 79.2995 12.616 80.1741 12.04L80.4301 12.36C80.0461 12.5947 79.5661 13.0213 78.9901 13.64C78.4355 14.2587 77.8701 14.9627 77.2941 15.752C76.7181 16.5413 76.2168 17.32 75.7901 18.088C75.3635 18.856 75.1181 19.5067 75.0541 20.04L72.5261 21.32C72.5048 21.192 72.4941 21.064 72.4941 20.936C72.4941 20.7867 72.4941 20.6373 72.4941 20.488C72.4941 19.72 72.5688 18.824 72.7181 17.8C72.8888 16.7547 73.0915 15.688 73.3261 14.6C73.5821 13.512 73.8595 12.4773 74.1581 11.496C74.4781 10.5147 74.7768 9.69333 75.0541 9.032C74.6275 9.37333 74.1155 9.864 73.5181 10.504C72.9421 11.1227 72.3341 11.8373 71.6941 12.648C71.0755 13.4587 70.4781 14.312 69.9021 15.208C69.3475 16.0827 68.8781 16.9573 68.4941 17.832C68.1101 18.6853 67.8648 19.464 67.7581 20.168L65.2301 21.32Z" fill="#020C6A"/>
</svg>
