<svg width="56" height="55" viewBox="0 0 56 55" fill="none" xmlns="http://www.w3.org/2000/svg">
<path d="M9.91005 40.6269C9.27256 40.6226 8.74002 40.4069 8.31242 39.98C7.88332 39.5545 7.6709 39.029 7.67516 38.4033C7.67943 37.7776 7.899 37.255 8.33387 36.8354C8.76725 36.4144 9.30269 36.206 9.94017 36.2103L45.9393 36.4559C46.5768 36.4602 47.1094 36.6759 47.537 37.1028C47.9661 37.5282 48.1785 38.0538 48.1742 38.6795C48.17 39.3052 47.9504 39.8278 47.5155 40.2474C47.0821 40.6684 46.5467 40.8768 45.9092 40.8724L9.91005 40.6269ZM9.98536 29.5855C9.34787 29.5812 8.81533 29.3655 8.38773 28.9386C7.95862 28.5131 7.7462 27.9876 7.75047 27.3619C7.75474 26.7362 7.97431 26.2128 8.40919 25.7918C8.84256 25.3722 9.37799 25.1646 10.0155 25.1689L46.0146 25.4145C46.6521 25.4188 47.1847 25.6337 47.6123 26.0592C48.0414 26.4861 48.2538 27.0124 48.2495 27.6381C48.2453 28.2638 48.0257 28.7864 47.5908 29.206C47.1574 29.627 46.622 29.8354 45.9845 29.831L9.98536 29.5855ZM10.0607 18.5441C9.42318 18.5397 8.89063 18.3248 8.46302 17.8994C8.03392 17.4725 7.82151 16.9461 7.82577 16.3205C7.83004 15.6948 8.04962 15.1714 8.4845 14.7504C8.91787 14.3308 9.4533 14.1232 10.0908 14.1275L46.0899 14.3731C46.7274 14.3774 47.26 14.5923 47.6876 15.0178C48.1167 15.4447 48.3291 15.971 48.3248 16.5967C48.3206 17.2224 48.101 17.7457 47.6661 18.1668C47.2327 18.5863 46.6973 18.794 46.0598 18.7896L10.0607 18.5441Z" fill="#4C6C6E"/>
</svg>
